<svg viewBox="0 0 64 64" fill="none" xmlns="http://www.w3.org/2000/svg" id="Setting--Streamline-Unicons" height="64" width="64"><desc>Setting Streamline Icon: https://streamlinehq.com</desc><path d="M57.7712 34.06933333333333c-0.5026666666666666 -0.572 -0.7797333333333333 -1.3077333333333332 -0.7797333333333333 -2.0693333333333332s0.2770666666666667 -1.4973333333333332 0.7797333333333333 -2.0696l4.0136 -4.5152c0.44239999999999996 -0.4933333333333333 0.7167999999999999 -1.1138666666666666 0.7845333333333333 -1.7730666666666668 0.06773333333333333 -0.6592 -0.07519999999999999 -1.3226666666666667 -0.40826666666666667 -1.8954666666666666l-6.2712 -10.849066666666666c-0.3293333333333333 -0.5722666666666667 -0.8311999999999999 -1.0258666666666665 -1.4335999999999998 -1.2959999999999998 -0.6026666666666667 -0.2704 -1.2749333333333333 -0.34346666666666664 -1.9213333333333333 -0.20906666666666665L46.63999999999999 10.584c-0.7498666666666667 0.1549333333333333 -1.5309333333333335 0.03013333333333333 -2.1952 -0.3512 -0.6645333333333333 -0.38106666666666666 -1.1661333333333332 -0.9925333333333333 -1.4106666666666667 -1.7181333333333333l-1.9128 -5.738133333333334c-0.21039999999999998 -0.6229333333333333 -0.6109333333333333 -1.1637333333333333 -1.1456 -1.5463999999999998 -0.5344 -0.3826666666666666 -1.176 -0.5874666666666666 -1.8330666666666666 -0.5858666666666666H25.600266666666663C24.916533333333334 0.6085333333333333 24.24 0.7975999999999999 23.67386666666667 1.1826666666666665c-0.5664 0.38506666666666667 -0.9909333333333332 0.9448 -1.2090666666666667 1.5938666666666665L20.708799999999997 8.514666666666667c-0.24453333333333332 0.7256 -0.7464 1.3370666666666664 -1.4106666666666667 1.7181333333333333 -0.6642666666666666 0.3813333333333333 -1.4450666666666667 0.5061333333333333 -2.1952 0.3512l-6.051733333333333 -1.1914666666666665c-0.6128 -0.08666666666666667 -1.2376 0.010133333333333333 -1.7954666666666665 0.27786666666666665 -0.5581333333333334 0.2677333333333333 -1.0242666666666667 0.6946666666666667 -1.3399999999999999 1.2271999999999998L1.6445333333333334 21.746666666666663c-0.3413333333333333 0.5664 -0.49466666666666664 1.2261333333333333 -0.43839999999999996 1.8850666666666664 0.056266666666666666 0.6589333333333333 0.3194666666666667 1.2832 0.7519999999999999 1.7834666666666665l3.9821333333333335 4.5152c0.5026666666666666 0.5722666666666667 0.7799999999999999 1.3079999999999998 0.7799999999999999 2.0696s-0.2773333333333333 1.4970666666666665 -0.7799999999999999 2.0693333333333332L1.958133333333333 38.58453333333333c-0.4325333333333333 0.5005333333333333 -0.6957333333333333 1.1245333333333334 -0.7519999999999999 1.7837333333333334 -0.056266666666666666 0.6586666666666666 0.09706666666666666 1.3184 0.43839999999999996 1.8850666666666664l6.2712 10.849066666666666c0.3296 0.5722666666666667 0.8311999999999999 1.0255999999999998 1.4335999999999998 1.2959999999999998 0.6026666666666667 0.27013333333333334 1.2749333333333333 0.3432 1.9213333333333333 0.20906666666666665l5.8949333333333325 -1.1914666666666665c0.7501333333333333 -0.1549333333333333 1.5309333333333335 -0.03013333333333333 2.1952 0.3512 0.6642666666666666 0.38106666666666666 1.1661333333333332 0.9922666666666666 1.4106666666666667 1.7181333333333333l1.9128 5.738133333333334c0.21813333333333332 0.6490666666666667 0.6426666666666666 1.2087999999999999 1.2090666666666667 1.5938666666666665 0.5661333333333333 0.38506666666666667 1.2426666666666666 0.5741333333333333 1.9264000000000001 0.5384h12.5424c0.6570666666666667 0.0015999999999999999 1.2986666666666666 -0.2032 1.8330666666666666 -0.5858666666666666 0.5346666666666666 -0.3826666666666666 0.9352 -0.9237333333333333 1.1456 -1.5463999999999998l1.9128 -5.738133333333334c0.24453333333333332 -0.7258666666666667 0.7461333333333333 -1.3370666666666664 1.4106666666666667 -1.7181333333333333 0.6639999999999999 -0.3813333333333333 1.4450666666666667 -0.5061333333333333 2.1952 -0.3512l5.8949333333333325 1.1914666666666665c0.6466666666666666 0.13413333333333333 1.3189333333333333 0.061066666666666665 1.9213333333333333 -0.20906666666666665 0.6023999999999999 -0.2704 1.1042666666666667 -0.7237333333333332 1.4335999999999998 -1.2959999999999998l6.2712 -10.849066666666666c0.3330666666666666 -0.5730666666666666 0.476 -1.2365333333333333 0.40826666666666667 -1.8954666666666666 -0.06773333333333333 -0.6592 -0.3421333333333333 -1.2799999999999998 -0.7845333333333333 -1.7733333333333334l-4.233066666666666 -4.5152Zm-4.672 4.201866666666667 2.5085333333333333 2.8218666666666667 -4.0136 6.961066666666666 -3.6999999999999997 -0.7525333333333333c-2.2581333333333333 -0.4616 -4.6072 -0.07813333333333333 -6.6015999999999995 1.0778666666666665 -1.9941333333333333 1.1562666666666666 -3.4943999999999997 3.004 -4.215999999999999 5.193333333333333l-1.1914666666666665 3.511733333333333h-8.0272l-1.1288 -3.5744c-0.7216 -2.189333333333333 -2.2218666666666667 -4.037066666666666 -4.215999999999999 -5.193333333333333 -1.9941333333333333 -1.156 -4.3431999999999995 -1.5394666666666668 -6.6015999999999995 -1.0778666666666665l-3.6999999999999997 0.7525333333333333 -4.076266666666666 -6.929599999999999 2.5085333333333333 -2.8221333333333334c1.5426666666666666 -1.7245333333333335 2.3954666666666666 -3.957333333333333 2.3954666666666666 -6.2712s-0.8527999999999999 -4.5464 -2.3954666666666666 -6.2712l-2.5085333333333333 -2.8218666666666667 4.0136 -6.8984 3.6999999999999997 0.7525333333333333c2.2581333333333333 0.46186666666666665 4.607466666666666 0.07813333333333333 6.6015999999999995 -1.0778666666666665s3.4943999999999997 -3.004 4.215999999999999 -5.193066666666667l1.1914666666666665 -3.5431999999999997h8.0272l1.1914666666666665 3.5744c0.7216 2.1890666666666663 2.2218666666666667 4.037066666666666 4.215999999999999 5.193066666666667 1.9944 1.1562666666666666 4.343466666666666 1.5397333333333334 6.6015999999999995 1.0781333333333332l3.6999999999999997 -0.7525333333333333 4.0136 6.961066666666666 -2.5085333333333333 2.8218666666666667c-1.5250666666666666 1.7207999999999999 -2.3672 3.940533333333333 -2.3672 6.239733333333334 0 2.2994666666666665 0.8421333333333334 4.5192 2.3672 6.239999999999999Zm-21.227733333333333 -18.8136c-2.4805333333333333 0 -4.9056 0.7357333333333332 -6.968266666666667 2.1138666666666666 -2.0624 1.3781333333333334 -3.6701333333333332 3.337066666666667 -4.619199999999999 5.628799999999999 -0.9493333333333333 2.292 -1.1978666666666666 4.813599999999999 -0.7138666666666666 7.246666666666666 0.484 2.4328 1.6786666666666665 4.667733333333333 3.4325333333333328 6.4216 1.7541333333333333 1.7541333333333333 3.9888 2.9487999999999994 6.421866666666666 3.4325333333333328 2.4330666666666665 0.4842666666666667 4.954666666666666 0.23573333333333335 7.246666666666666 -0.7136 2.291733333333333 -0.9490666666666666 4.250666666666667 -2.5568 5.628799999999999 -4.619199999999999s2.1138666666666666 -4.487733333333333 2.1138666666666666 -6.968266666666667c0 -3.3266666666666667 -1.3213333333333332 -6.5168 -3.673866666666666 -8.8688 -2.352 -2.3522666666666665 -5.542133333333333 -3.6735999999999995 -8.868533333333332 -3.6735999999999995Zm0 18.8136c-1.2405333333333333 0 -2.4525333333333332 -0.368 -3.484 -1.0570666666666666 -1.0312 -0.6887999999999999 -1.8352 -1.6685333333333334 -2.3098666666666663 -2.814133333333333 -0.4746666666666666 -1.1461333333333332 -0.5986666666666667 -2.406933333333333 -0.3568 -3.6234666666666664 0.24186666666666667 -1.2162666666666666 0.8392 -2.3338666666666663 1.7162666666666664 -3.210933333333333 0.8770666666666667 -0.8770666666666667 1.9946666666666666 -1.4743999999999997 3.210933333333333 -1.7162666666666664 1.2165333333333332 -0.24213333333333334 2.477333333333333 -0.1176 3.6234666666666664 0.3568 1.1456 0.4746666666666666 2.1253333333333333 1.2786666666666666 2.814133333333333 2.3098666666666663 0.6893333333333334 1.0312 1.0570666666666666 2.2434666666666665 1.0570666666666666 3.484 0 1.6632 -0.6607999999999999 3.2581333333333333 -1.8367999999999998 4.4344s-2.7711999999999994 1.8367999999999998 -4.4344 1.8367999999999998Z" fill="#ffffff" stroke-width="2.6667"></path></svg>