<svg viewBox="0 0 64 64" fill="none" xmlns="http://www.w3.org/2000/svg" id="Bug--Streamline-Unicons" height="64" width="64"><desc>Bug Streamline Icon: https://streamlinehq.com</desc><path d="M53.952 38.272h6.271999999999999c0.8317333333333333 0 1.6296 -0.33039999999999997 2.2176 -0.9183999999999999s0.9183999999999999 -1.3858666666666668 0.9183999999999999 -2.2176c0 -0.8317333333333333 -0.33039999999999997 -1.6293333333333333 -0.9183999999999999 -2.2173333333333334S61.055733333333336 32 60.224 32h-6.271999999999999v-3.1359999999999997c-0.027466666666666667 -1.4447999999999999 -0.24933333333333332 -2.8792 -0.6586666666666666 -4.265066666666666 2.9479999999999995 -1.1301333333333332 5.4858666666666664 -3.123733333333333 7.281866666666667 -5.719733333333332 1.7959999999999998 -2.5962666666666667 2.7666666666666666 -5.6743999999999994 2.7847999999999997 -8.831199999999999 0 -0.8317333333333333 -0.33039999999999997 -1.6293333333333333 -0.9183999999999999 -2.2176 -0.588 -0.588 -1.3858666666666668 -0.9183999999999999 -2.2176 -0.9183999999999999 -0.8317333333333333 0 -1.6293333333333333 0.33039999999999997 -2.2173333333333334 0.9183999999999999 -0.588 0.5882666666666666 -0.9186666666666665 1.3858666666666668 -0.9186666666666665 2.2176 -0.0029333333333333334 2.022133333333333 -0.6570666666666667 3.9898666666666665 -1.8658666666666666 5.610933333333333 -1.2085333333333332 1.6210666666666667 -2.9077333333333333 2.8096 -4.845066666666666 3.389333333333333 -1.5466666666666664 -1.9818666666666664 -3.5472 -3.5629333333333335 -5.8330666666666655 -4.609866666666666 0.03253333333333333 -0.41759999999999997 0.03253333333333333 -0.8368 0 -1.2544 0 -3.3269333333333333 -1.3215999999999999 -6.5176 -3.674133333333333 -8.869866666666667C38.5176 1.9616 35.32693333333333 0.6399999999999999 32 0.6399999999999999c-3.3269333333333333 0 -6.5176 1.3215999999999999 -8.869866666666667 3.674133333333333 -2.352533333333333 2.3522666666666665 -3.674133333333333 5.542933333333332 -3.674133333333333 8.869866666666667 -0.03253333333333333 0.41759999999999997 -0.03253333333333333 0.8368 0 1.2544 -2.3312 1.0295999999999998 -4.376533333333333 2.612 -5.958399999999999 4.609866666666666 -1.9138666666666666 -0.6018666666666667 -3.5853333333333333 -1.8 -4.770133333333333 -3.4192 -1.1847999999999999 -1.6191999999999998 -1.8207999999999998 -3.5746666666666664 -1.8154666666666666 -5.581066666666667 0 -0.8317333333333333 -0.33039999999999997 -1.6293333333333333 -0.9183999999999999 -2.2176 -0.5882666666666666 -0.588 -1.3858666666666668 -0.9183999999999999 -2.2176 -0.9183999999999999s-1.6293333333333333 0.33039999999999997 -2.2176 0.9183999999999999C0.9703999999999999 8.418666666666667 0.6399999999999999 9.216266666666666 0.6399999999999999 10.047999999999998c0.01813333333333333 3.1567999999999996 0.9888 6.234933333333332 2.7847999999999997 8.831199999999999S7.758933333333333 23.4688 10.706666666666665 24.598933333333335c-0.4093333333333333 1.3858666666666668 -0.6309333333333333 2.820266666666667 -0.6586666666666666 4.265066666666666V32H3.776c-0.8317333333333333 0 -1.6293333333333333 0.33066666666666666 -2.2176 0.9186666666666665 -0.588 0.588 -0.9183999999999999 1.3855999999999997 -0.9183999999999999 2.2173333333333334 0 0.8317333333333333 0.33039999999999997 1.6296 0.9183999999999999 2.2176 0.5882666666666666 0.588 1.3858666666666668 0.9183999999999999 2.2176 0.9183999999999999h6.271999999999999v3.1359999999999997c0.0026666666666666666 1.4536 0.14986666666666665 2.9032 0.4389333333333333 4.327733333333333 -2.896533333333333 1.1608 -5.381066666666666 3.1597333333333335 -7.135466666666667 5.7408S0.6533333333333333 57.10346666666666 0.6399999999999999 60.224c0 0.8317333333333333 0.33039999999999997 1.6296 0.9183999999999999 2.2176 0.5882666666666666 0.588 1.3858666666666668 0.9183999999999999 2.2176 0.9183999999999999s1.6293333333333333 -0.33039999999999997 2.2176 -0.9183999999999999c0.588 -0.588 0.9183999999999999 -1.3858666666666668 0.9183999999999999 -2.2176 0.008533333333333334 -1.8287999999999998 0.5498666666666666 -3.6157333333333335 1.5581333333333334 -5.141866666666666 1.008 -1.5261333333333333 2.4391999999999996 -2.7253333333333334 4.118133333333333 -3.4506666666666668 1.8648 3.5317333333333334 4.658133333333333 6.4879999999999995 8.078666666666667 8.549866666666667 3.4208 2.0618666666666665 7.338933333333333 3.151733333333333 11.333066666666667 3.151733333333333s7.912533333333333 -1.0898666666666665 11.332799999999999 -3.151733333333333c3.4208 -2.0618666666666665 6.214133333333333 -5.018133333333333 8.078933333333332 -8.549866666666667 1.6792 0.7253333333333334 3.1101333333333328 1.9245333333333332 4.118399999999999 3.4506666666666668 1.008 1.5261333333333333 1.5493333333333332 3.3130666666666664 1.5578666666666667 5.141866666666666 0 0.8317333333333333 0.33066666666666666 1.6296 0.9186666666666665 2.2176s1.3855999999999997 0.9183999999999999 2.2173333333333334 0.9183999999999999c0.8317333333333333 0 1.6296 -0.33039999999999997 2.2176 -0.9183999999999999s0.9183999999999999 -1.3858666666666668 0.9183999999999999 -2.2176c-0.013066666666666666 -3.120533333333333 -0.9573333333333333 -6.166666666666666 -2.711733333333333 -8.747466666666666 -1.7538666666666665 -2.5810666666666666 -4.238666666666666 -4.58 -7.135199999999999 -5.7408 0.28906666666666664 -1.4245333333333332 0.436 -2.8741333333333334 0.4389333333333333 -4.327733333333333v-3.1359999999999997Zm-25.087999999999997 18.502399999999998c-3.5416 -0.7229333333333333 -6.724799999999999 -2.6474666666666664 -9.010666666666665 -5.447466666666667 -2.2858666666666663 -2.8002666666666665 -3.534133333333333 -6.303999999999999 -3.533333333333333 -9.918933333333332v-12.543999999999999c0 -2.494933333333333 0.9911999999999999 -4.888 2.755466666666667 -6.6525333333333325 1.764533333333333 -1.7642666666666664 4.157333333333333 -2.755466666666667 6.6525333333333325 -2.755466666666667h3.1359999999999997v37.3184ZM25.727999999999998 13.184c0 -1.6634666666666666 0.6607999999999999 -3.2586666666666666 1.8370666666666664 -4.434933333333333 1.1762666666666666 -1.1762666666666666 2.7717333333333336 -1.8370666666666664 4.434933333333333 -1.8370666666666664 1.6634666666666666 0 3.2586666666666666 0.6607999999999999 4.434933333333333 1.8370666666666664 1.1762666666666666 1.1762666666666666 1.8370666666666664 2.771466666666666 1.8370666666666664 4.434933333333333H25.727999999999998Zm21.951999999999998 28.223999999999997c0.0005333333333333334 3.614933333333333 -1.2474666666666665 7.118666666666667 -3.533333333333333 9.918933333333332 -2.2858666666666663 2.8 -5.4688 4.7245333333333335 -9.010666666666665 5.447466666666667V19.456h3.1359999999999997c2.494933333333333 0 4.888 0.9911999999999999 6.6525333333333325 2.755466666666667 1.7642666666666664 1.764533333333333 2.755466666666667 4.1575999999999995 2.755466666666667 6.6525333333333325v12.543999999999999Z" fill="#ff4a4a" stroke-width="2.6667"></path></svg>